<svg id="Layer_1" data-name="Layer 1" xmlns="http://www.w3.org/2000/svg" viewBox="0 0 160 96"><defs><style>.cls-1{fill:#fff;}.cls-2{fill:#293052;}.cls-3{fill:#f2f2f2;}.cls-4,.cls-8{fill:none;}.cls-4{stroke:#293052;stroke-miterlimit:10;stroke-width:2px;}.cls-5{fill:#e88025;}.cls-6{opacity:0.6;}.cls-7{fill:#bfbdc8;}.cls-8{stroke:#2e8842;stroke-width:3px;}</style></defs><title>2FA-icon</title><path class="cls-1" d="M13,87V8a7.008,7.008,0,0,1,7-7H132a7.008,7.008,0,0,1,7,7V87Z"/><path class="cls-2" d="M132,2a6.007,6.007,0,0,1,6,6V86H14V8a6.007,6.007,0,0,1,6-6H132m0-2H20a8,8,0,0,0-8,8V88H140V8a8,8,0,0,0-8-8Z"/><rect class="cls-1" x="21" y="9" width="110" height="70"/><path class="cls-2" d="M130,10V78H22V10H130m2-2H20V80H132V8Z"/><path class="cls-1" d="M8,87a7.008,7.008,0,0,1-7-7V77H151v3a7.009,7.009,0,0,1-7,7Z"/><path class="cls-2" d="M150,78v2a6.007,6.007,0,0,1-6,6H8a6.007,6.007,0,0,1-6-6V78H150m2-2H0v4a8,8,0,0,0,8,8H144a8,8,0,0,0,8-8V76Z"/><polygon class="cls-3" points="64 76 129.833 76 129.833 9.888 104 9.888 64 76"/><rect class="cls-1" x="109" y="21" width="50" height="74" rx="7" ry="7"/><path class="cls-2" d="M152,22a6.007,6.007,0,0,1,6,6V88a6.007,6.007,0,0,1-6,6H116a6.007,6.007,0,0,1-6-6V28a6.007,6.007,0,0,1,6-6h36m0-2H116a8,8,0,0,0-8,8V88a8,8,0,0,0,8,8h36a8,8,0,0,0,8-8V28a8,8,0,0,0-8-8Z"/><rect class="cls-4" x="94" y="30.638" width="14.999" height="16"/><path class="cls-3" d="M116,93.95h36c2.583,0,6.333-2.75,5.833-5.95V27.388c0-2.21-2.438-5.688-5.833-5.375h-8L110.02,88.2A6.172,6.172,0,0,0,116,93.95Z"/><rect class="cls-1" x="117" y="29" width="34" height="50"/><path class="cls-2" d="M150,30V78H118V30h32m2-2H116V80h36V28Z"/><rect class="cls-5" x="124" y="52" width="4" height="4" rx="2" ry="2"/><polygon class="cls-3" points="118.066 77.934 149.895 77.934 149.895 30.138 140 30.138 118.066 77.934"/><rect class="cls-5" x="132" y="52" width="4" height="4" rx="2" ry="2"/><rect class="cls-5" x="140" y="52" width="4" height="4" rx="2" ry="2"/><rect class="cls-5" x="44" y="36.638" width="4" height="4" rx="2" ry="2"/><rect class="cls-5" x="72" y="36.638" width="4" height="4" rx="2" ry="2"/><rect class="cls-5" x="100" y="36.638" width="4" height="4" rx="2" ry="2"/><rect class="cls-4" x="38" y="30.638" width="16" height="16"/><rect class="cls-4" x="66" y="30.638" width="16" height="16"/><rect class="cls-2" x="128" y="84" width="12" height="4" rx="2" ry="2"/><g class="cls-6"><polygon class="cls-7" points="71.352 66.914 65.183 60.746 67.327 58.602 71.352 62.626 80.672 53.305 82.817 55.449 71.352 66.914 71.352 66.914"/></g><polyline class="cls-8" points="66.255 59.241 71.352 64.336 81.744 53.944"/></svg>