<?xml version="1.0" encoding="utf-8"?>
<!-- Generator: Adobe Illustrator 19.1.0, SVG Export Plug-In . SVG Version: 6.00 Build 0)  -->
<svg version="1.1" id="Layer_1" xmlns="http://www.w3.org/2000/svg" xmlns:xlink="http://www.w3.org/1999/xlink" x="0px" y="0px"
	 viewBox="0 0 82 82" style="enable-background:new 0 0 82 82;" xml:space="preserve">
<style type="text/css">
	.st0{fill:#293152;}
	.st1{fill:#E88124;}
</style>
<g>
	<g>
		<g>
			<path class="st0" d="M51.3,23.9v-2.4c0-1.5-0.9-2.8-2.3-3.4c-0.5-0.2-1.2-0.4-1.9-0.5c-2.3-0.4-3.4-1-3.9-1.5
				c-0.3-0.3-0.5-0.7-0.5-1.2v-0.6c0-0.4,0.2-0.8,0.5-1.1c0.7-0.7,1.8-2.1,1.8-4.1c0-2.8-1.8-4.3-4-4.3s-4,1.5-4,4.3
				c0,2,1.1,3.5,1.8,4.1c0.3,0.3,0.5,0.7,0.5,1.1V15c0,0.4-0.2,0.9-0.5,1.2c-0.5,0.5-1.7,1.1-3.9,1.5c-0.8,0.1-1.4,0.3-1.9,0.5
				c-1.4,0.6-2.3,1.9-2.3,3.4V24h20.6V23.9z"/>
		</g>
		<g>
			<path class="st0" d="M82,45.5v-2.4c0-1.5-0.9-2.8-2.3-3.4c-0.5-0.2-1.2-0.4-1.9-0.5c-2.3-0.4-3.4-1-3.9-1.5
				c-0.3-0.3-0.5-0.7-0.5-1.2v-0.6c0-0.4,0.2-0.8,0.5-1.1c0.7-0.7,1.8-2.1,1.8-4.1c0-2.8-1.8-4.3-4-4.3s-4,1.5-4,4.3
				c0,2,1.1,3.5,1.8,4.1c0.3,0.3,0.5,0.7,0.5,1.1v0.6c0,0.4-0.2,0.9-0.5,1.2c-0.5,0.5-1.7,1.1-3.9,1.5c-0.8,0.1-1.4,0.3-1.9,0.5
				c-1.4,0.6-2.3,1.9-2.3,3.4v2.4C61.4,45.5,82,45.5,82,45.5z"/>
		</g>
		<g>
			<path class="st0" d="M20.7,45.5v-2.4c0-1.5-0.9-2.8-2.3-3.4c-0.5-0.2-1.2-0.4-1.9-0.5c-2.3-0.4-3.4-1-3.9-1.5
				c-0.3-0.3-0.5-0.7-0.5-1.2v-0.6c0-0.4,0.2-0.8,0.5-1.1c0.7-0.7,1.8-2.1,1.8-4.1c0-2.8-1.8-4.3-4-4.3s-4,1.5-4,4.3
				c0,2,1.1,3.5,1.8,4.1c0.3,0.3,0.5,0.7,0.5,1.1v0.6c0,0.4-0.2,0.9-0.5,1.2c-0.5,0.5-1.7,1.1-3.9,1.5c-0.8,0.1-1.4,0.3-1.9,0.5
				c-1.5,0.7-2.4,2-2.4,3.5v2.4h20.7V45.5z"/>
		</g>
		<g>
			<path class="st0" d="M29.9,77.1v-2.4c0-1.5-0.9-2.8-2.3-3.4c-0.5-0.2-1.2-0.4-1.9-0.5c-2.3-0.4-3.4-1-3.9-1.5
				c-0.3-0.3-0.5-0.7-0.5-1.2v-0.6c0-0.4,0.2-0.8,0.5-1.1c0.7-0.7,1.8-2.1,1.8-4.1c0-2.8-1.8-4.3-4-4.3s-4,1.5-4,4.3
				c0,2,1.1,3.5,1.8,4.1c0.3,0.3,0.5,0.7,0.5,1.1v0.6c0,0.4-0.2,0.9-0.5,1.2c-0.5,0.5-1.7,1.1-3.9,1.5c-0.8,0.1-1.4,0.3-1.9,0.5
				c-1.4,0.6-2.3,1.9-2.3,3.4v2.4H29.9z"/>
		</g>
		<g>
			<path class="st0" d="M73,77.1v-2.4c0-1.5-0.9-2.8-2.3-3.4c-0.5-0.2-1.2-0.4-1.9-0.5c-2.3-0.4-3.4-1-3.9-1.5
				c-0.3-0.3-0.5-0.7-0.5-1.2v-0.6c0-0.4,0.2-0.8,0.5-1.1c0.7-0.7,1.8-2.1,1.8-4.1c0-2.8-1.8-4.3-4-4.3c-2.2,0-4,1.5-4,4.3
				c0,2,1.1,3.5,1.8,4.1c0.3,0.3,0.5,0.7,0.5,1.1v0.6c0,0.4-0.2,0.9-0.5,1.2c-0.5,0.5-1.7,1.1-3.9,1.5c-0.8,0.1-1.4,0.3-1.9,0.5
				c-1.4,0.6-2.3,1.9-2.3,3.4v2.4H73z"/>
		</g>
	</g>
	<g>
		<path class="st1" d="M41,31.3L41,31.3C41,31.3,41,31.3,41,31.3C40.9,31.3,40.9,31.3,41,31.3L41,31.3c-4.5,0-8.6,1.7-11.7,4.9
			c-2.8,2.9-4.4,6.6-4.6,10.5l0,0.8l0,0.8c0.2,3.8,1.6,7.3,4.2,10.1c3.1,3.4,7.4,5.3,12,5.3c4.5,0,8.9-1.9,12-5.3
			c2.5-2.8,4.1-6.3,4.3-10.1v-0.8c0-4.3-1.7-8.3-4.6-11.3C49.5,33,45.4,31.3,41,31.3z M40.9,32.9c2.3,0,4.7,2.8,5.9,7.3
			c0.5,1.8,0.7,3.8,0.9,5.9c0,0.2,0,0.4,0,0.6H34.2c0-1.5,0.2-3,0.4-4.4c0.1-0.7,0.3-1.4,0.5-2.1C36.3,35.7,38.5,32.9,40.9,32.9z
			 M30.4,37.3c1.7-1.8,4-3.1,6.3-3.8c-1.3,1.5-2.4,3.6-3.1,6.3c-0.6,1.9-0.9,4-1,6.2c0,0.2,0,0.4,0,0.7h-6.3
			C26.5,43.2,27.9,39.9,30.4,37.3z M30.1,57.3c-2.3-2.5-3.6-5.7-3.8-8.9h6.3c0,0.3,0,0.6,0.1,0.9c0,0,0,0,0,0
			c0.1,1.8,0.3,3.6,0.7,5.3c0.7,2.9,1.8,5.3,3.2,6.9C34.1,60.7,31.8,59.3,30.1,57.3z M40.9,62.1c-2.5,0-4.8-3.2-6-8
			c-0.1-0.4-0.2-0.8-0.3-1.3c0-0.1,0-0.2,0-0.2c0-0.1,0-0.1,0-0.2c-0.1-0.4-0.1-0.9-0.2-1.3c0-0.3-0.1-0.5-0.1-0.8
			c0-0.3-0.1-0.5-0.1-0.8c0-0.2,0-0.4,0-0.6c0-0.2,0-0.4,0-0.6h0.1h13.5c-0.1,2.1-0.3,4-0.8,5.8C45.7,59,43.4,62.1,40.9,62.1z
			 M51.7,57.3c-1.8,2-4.1,3.4-6.6,4.2c0.8-0.9,1.5-2.1,2.1-3.5c0.5-1,0.9-2.2,1.2-3.5c0.4-2,0.7-4,0.8-6.2h0h6.2
			C55.3,51.6,54,54.8,51.7,57.3z M55.6,46.6h-6.3c0-0.3,0-0.6-0.1-0.9c0-0.1,0-0.2,0-0.3c-0.1-2-0.4-3.9-0.9-5.6
			c-0.8-2.7-1.8-4.8-3.1-6.3c2.3,0.7,4.5,2,6.3,3.8C54,39.9,55.4,43.1,55.6,46.6z"/>
		<rect x="37.2" y="40.2" class="st1" width="7.2" height="1.6"/>
		<rect x="37.2" y="53.1" class="st1" width="7.2" height="1.6"/>
		<rect x="50.3" y="40.2" class="st1" width="2" height="1.6"/>
		<rect x="50.3" y="53.1" class="st1" width="2" height="1.6"/>
		<rect x="29.1" y="40.2" class="st1" width="2" height="1.6"/>
		<rect x="29.1" y="53.1" class="st1" width="2" height="1.6"/>
		<rect x="40.1" y="25.5" class="st1" width="1.6" height="5.2"/>
		<rect x="20.7" y="39.2" transform="matrix(0.9735 0.2286 -0.2286 0.9735 9.7638 -4.2656)" class="st1" width="5.2" height="1.6"/>
		<rect x="58" y="37.4" transform="matrix(0.2285 0.9735 -0.9735 0.2285 84.2944 -26.3368)" class="st1" width="1.6" height="5.2"/>
		
			<rect x="51.8" y="61.2" transform="matrix(-0.8323 -0.5543 0.5543 -0.8323 65.2589 143.8186)" class="st1" width="5.2" height="1.6"/>
		
			<rect x="27.2" y="59.4" transform="matrix(-0.5542 -0.8324 0.8324 -0.5542 -8.1545 119.6976)" class="st1" width="1.6" height="5.2"/>
	</g>
</g>
</svg>
