<svg id="Layer_1" data-name="Layer 1" xmlns="http://www.w3.org/2000/svg" viewBox="0 0 393.57 137.59"><defs><style>.cls-1{fill:#2a3052;}.cls-2{fill:#fff;}.cls-3{fill:#e88124;}.cls-4{fill:#2a3152;}</style></defs><title>horizontal logo_dark</title><rect class="cls-1" width="393.57" height="137.59"/><path class="cls-2" d="M174.79,47.4a9.06,9.06,0,0,0-2.69.37,9,9,0,0,0-2.18,1,9.11,9.11,0,0,0-1.74,1.45l-0.39.42V47.91h-6.63V73.1h6.63V59a5.66,5.66,0,0,1,1.35-4,4.58,4.58,0,0,1,3.52-1.41A4.2,4.2,0,0,1,176,54.88a5.94,5.94,0,0,1,1.21,4V73.1h6.64V57.21a10.35,10.35,0,0,0-2.37-7.11A8.55,8.55,0,0,0,174.79,47.4Z"/><path class="cls-2" d="M199.25,47.59a21,21,0,0,0-5.21.56,26.47,26.47,0,0,0-4.2,1.49l-0.44.2,1.84,5.42,0.53-.22A24.41,24.41,0,0,1,194.94,54a14.27,14.27,0,0,1,3.53-.4,6.06,6.06,0,0,1,4.06,1.2A4.12,4.12,0,0,1,203.87,58a23.6,23.6,0,0,0-2.33-.54,22.13,22.13,0,0,0-3.82-.28,15.68,15.68,0,0,0-4,.5,9.39,9.39,0,0,0-3.29,1.55,7.36,7.36,0,0,0-2.19,2.66,8.41,8.41,0,0,0-.79,3.73v0.09a7.58,7.58,0,0,0,.76,3.46,7.41,7.41,0,0,0,2,2.51,8.66,8.66,0,0,0,2.89,1.51,11.75,11.75,0,0,0,3.45.5,10.51,10.51,0,0,0,4.9-1.06,11.63,11.63,0,0,0,2.38-1.64v2.2h6.55V58.31c0-3.36-.93-6-2.76-7.89S203,47.59,199.25,47.59ZM198.1,68.44a5.3,5.3,0,0,1-3-.82A2.49,2.49,0,0,1,194,65.4V65.31A2.64,2.64,0,0,1,195.2,63a6.65,6.65,0,0,1,3.77-.91,16,16,0,0,1,2.94.26,15.17,15.17,0,0,1,2.06.54v1a4,4,0,0,1-.41,1.83,4.34,4.34,0,0,1-1.2,1.42,6.29,6.29,0,0,1-1.88.95A8.06,8.06,0,0,1,198.1,68.44Z"/><path class="cls-2" d="M244.56,64.82l-6.47-16.91H231l10.28,24.66a4.69,4.69,0,0,1-1.21,1.78,2.61,2.61,0,0,1-1.65.49,5.15,5.15,0,0,1-1.51-.23,8.83,8.83,0,0,1-1.49-.63l-0.5-.26-2.31,5.08L233.09,79a13.72,13.72,0,0,0,2.73,1.12,11.94,11.94,0,0,0,3.23.41,9.22,9.22,0,0,0,2.77-.39,7,7,0,0,0,2.28-1.26A8.9,8.9,0,0,0,246,76.69a21.28,21.28,0,0,0,1.55-3.24l9.88-25.55h-6.91Z"/><path class="cls-3" d="M287.87,64.93a12.63,12.63,0,0,1-2.7,2.09,6.82,6.82,0,0,1-5.89.21,6.72,6.72,0,0,1-2.12-1.55,7,7,0,0,1-1.38-2.3,8.2,8.2,0,0,1-.49-2.83V60.46a8,8,0,0,1,.49-2.79,7.12,7.12,0,0,1,1.34-2.28,6.51,6.51,0,0,1,2-1.52,5.86,5.86,0,0,1,2.55-.56,6.42,6.42,0,0,1,3.28.77,12.5,12.5,0,0,1,2.61,2.09l0.39,0.4,4.14-4.47-0.33-.36a14,14,0,0,0-4.11-3.14,13.53,13.53,0,0,0-15.31,2.68,13,13,0,0,0-2.74,4.2,13.39,13.39,0,0,0-1,5.07v0.09a13.28,13.28,0,0,0,1,5,12.79,12.79,0,0,0,2.74,4.15,13.05,13.05,0,0,0,9.34,3.81,12.58,12.58,0,0,0,6.07-1.32A15.8,15.8,0,0,0,292,69l0.34-.37-4.08-4Z"/><path class="cls-3" d="M317.35,51.24a12.93,12.93,0,0,0-4.24-2.81,13.74,13.74,0,0,0-5.35-1,13.57,13.57,0,0,0-5.35,1,13.14,13.14,0,0,0-7,7,12.83,12.83,0,0,0-1,5.1v0.09a13.08,13.08,0,0,0,1,5,12.65,12.65,0,0,0,2.8,4.15,13.3,13.3,0,0,0,4.24,2.79,14.25,14.25,0,0,0,10.67,0,13,13,0,0,0,7.07-7,12.62,12.62,0,0,0,1-5.05V60.46A12.83,12.83,0,0,0,317.35,51.24ZM307.76,67.8a6.41,6.41,0,0,1-2.71-.57,6.83,6.83,0,0,1-2.15-1.57,7.57,7.57,0,0,1-1.42-2.31,7.7,7.7,0,0,1-.51-2.8V60.46a8.41,8.41,0,0,1,.47-2.79,6.52,6.52,0,0,1,1.34-2.26,6.67,6.67,0,0,1,2.13-1.53,7,7,0,0,1,5.51,0,6.74,6.74,0,0,1,2.16,1.55,7.06,7.06,0,0,1,1.41,2.3,7.89,7.89,0,0,1,.51,2.83v0.09a8.16,8.16,0,0,1-.47,2.77,7,7,0,0,1-1.35,2.27,6.74,6.74,0,0,1-2.12,1.54A6.67,6.67,0,0,1,307.76,67.8Z"/><path class="cls-3" d="M360.09,50a8.67,8.67,0,0,0-6.62-2.57,9.73,9.73,0,0,0-5,1.25,12.43,12.43,0,0,0-3.11,2.63,8.16,8.16,0,0,0-2.55-2.61,8.36,8.36,0,0,0-4.68-1.26,8.84,8.84,0,0,0-2.64.37,7.94,7.94,0,0,0-2.14,1,9.56,9.56,0,0,0-1.66,1.41c-0.13.13-.24,0.27-0.36,0.4v-2.7h-6.64v25.2h6.64V59A6,6,0,0,1,332.59,55a4.21,4.21,0,0,1,3.33-1.42,3.92,3.92,0,0,1,3.19,1.32,6,6,0,0,1,1.15,4V73.1h6.64V59a5.78,5.78,0,0,1,1.29-4.08,4.3,4.3,0,0,1,3.33-1.36,3.92,3.92,0,0,1,3.19,1.32,6.16,6.16,0,0,1,1.15,4V73.1h6.63V57.16C362.48,54.08,361.69,51.66,360.09,50Z"/><rect class="cls-2" x="150.98" y="47.91" width="6.64" height="25.2"/><path class="cls-2" d="M158,42a3.67,3.67,0,1,0-3.68,3.68A3.68,3.68,0,0,0,158,42Z"/><path class="cls-3" d="M265.49,70a3.68,3.68,0,1,0-3.67,3.67A3.67,3.67,0,0,0,265.49,70Z"/><path class="cls-2" d="M145.47,57.72A9.5,9.5,0,0,0,143.27,56a17.44,17.44,0,0,0-1.71-.84L141.18,55l0.34-.22c0.29-.18.57-0.39,0.86-0.61A7.93,7.93,0,0,0,144,52.49a8.25,8.25,0,0,0,1.11-2.18,8.77,8.77,0,0,0,.43-2.86v-0.1a8,8,0,0,0-2.4-5.9c-2.06-2.07-5.13-3.12-9.13-3.12H118.4V73.1H134.5a20.62,20.62,0,0,0,5.24-.62,12.53,12.53,0,0,0,4.1-1.83,8.53,8.53,0,0,0,2.66-3,9.21,9.21,0,0,0,.94-4.2v-0.1a9.07,9.07,0,0,0-.51-3.18A7.08,7.08,0,0,0,145.47,57.72ZM125,52.48V44.34h8.24a7,7,0,0,1,4.22,1.07,3.39,3.39,0,0,1,1.39,2.91v0.09a3.5,3.5,0,0,1-1.58,3.19,8,8,0,0,1-4.47,1.09H125V52.48Zm15.76,10.3A3.58,3.58,0,0,1,139.2,66a8.27,8.27,0,0,1-4.61,1.11H125V58.45h9.11a9.05,9.05,0,0,1,5.06,1.14,3.51,3.51,0,0,1,1.58,3.09v0.1Z"/><path class="cls-2" d="M228.61,47.45A8.28,8.28,0,0,0,223,49.07a10.37,10.37,0,0,0-2.39,2.64V47.91h-6.64V73.1h6.64V63.39a12.83,12.83,0,0,1,.57-4,7.67,7.67,0,0,1,1.57-2.8,6.54,6.54,0,0,1,2.42-1.65,8.52,8.52,0,0,1,3.14-.56h0.82V47.47Z"/><path class="cls-2" d="M118.4,95l1.74-.16,0,0.46a2.79,2.79,0,0,0,.35,1.41,2.29,2.29,0,0,0,1.16,1,4.85,4.85,0,0,0,1.93.35,3.69,3.69,0,0,0,2.43-.7,2,2,0,0,0,.83-1.59,1.69,1.69,0,0,0-.44-1.13,8.27,8.27,0,0,0-2.47-1.38,16.69,16.69,0,0,1-2.13-1,4.25,4.25,0,0,1-1.32-1.28,3,3,0,0,1-.42-1.58,3.16,3.16,0,0,1,.56-1.83,3.49,3.49,0,0,1,1.64-1.26,6.49,6.49,0,0,1,2.43-.44,6.15,6.15,0,0,1,2.72.55,3.63,3.63,0,0,1,2.12,3.17c0,0.05,0,.14,0,0.27l-1.7.13a3.05,3.05,0,0,0-.1-0.87,2.45,2.45,0,0,0-.56-0.94,2.75,2.75,0,0,0-1-.6,4.53,4.53,0,0,0-1.49-.24,3.47,3.47,0,0,0-2.25.65,1.69,1.69,0,0,0-.36,2.19,2.59,2.59,0,0,0,.91.76c0.31,0.18,1.06.52,2.23,1a14.46,14.46,0,0,1,2,1,3.41,3.41,0,0,1,1.11,1.16,3,3,0,0,1,.39,1.55,3.33,3.33,0,0,1-.66,2,4.22,4.22,0,0,1-1.8,1.4,6.63,6.63,0,0,1-2.66.5,6.33,6.33,0,0,1-3.67-1C118.88,97.87,118.41,96.7,118.4,95Z"/><path class="cls-2" d="M130.42,99.28L133.19,86h1.63l-1,5.09a6.65,6.65,0,0,1,1.69-1.28,3.64,3.64,0,0,1,1.62-.38,2.58,2.58,0,0,1,1.85.62,2.18,2.18,0,0,1,.66,1.66,10.57,10.57,0,0,1-.29,1.86l-1.18,5.66h-1.64l1.22-5.81a10.84,10.84,0,0,0,.26-1.59,1,1,0,0,0-.33-0.77,1.31,1.31,0,0,0-.93-0.3,3.41,3.41,0,0,0-2.95,1.73,9.75,9.75,0,0,0-.84,2.61l-0.86,4.12h-1.63Z"/><path class="cls-2" d="M147.55,98.09a6.77,6.77,0,0,1-1.64,1.07,4.16,4.16,0,0,1-1.68.34,3,3,0,0,1-2.14-.78,2.65,2.65,0,0,1-.81-2,2.73,2.73,0,0,1,.37-1.42,2.85,2.85,0,0,1,1-1,4.18,4.18,0,0,1,1.48-.54,17.12,17.12,0,0,1,2.09-.17,7.38,7.38,0,0,0,2.21-.32,4.6,4.6,0,0,0,.18-1.11,1.08,1.08,0,0,0-.41-0.89,2.63,2.63,0,0,0-1.66-.45,2.86,2.86,0,0,0-1.68.46,2.53,2.53,0,0,0-1,1.3l-1.65-.15a4.24,4.24,0,0,1,1.6-2.18,4.75,4.75,0,0,1,2.77-.76,4.32,4.32,0,0,1,2.82.85,2,2,0,0,1,.8,1.64,8.5,8.5,0,0,1-.23,1.78l-0.53,2.38a8.69,8.69,0,0,0-.25,1.85,6,6,0,0,0,.2,1.3h-1.66A5.31,5.31,0,0,1,147.55,98.09Zm0.6-3.67a4.23,4.23,0,0,1-.73.2q-0.4.07-1.32,0.15a10.29,10.29,0,0,0-2,.32,1.78,1.78,0,0,0-.88.62,1.63,1.63,0,0,0-.3.94,1.46,1.46,0,0,0,.47,1.13,1.91,1.91,0,0,0,1.35.44,3.18,3.18,0,0,0,2.75-1.63A7.09,7.09,0,0,0,148.15,94.43Z"/><path class="cls-2" d="M151.73,99.28l2-9.59h1.44l-0.41,2A6.8,6.8,0,0,1,156.22,90a2.41,2.41,0,0,1,1.45-.53,2.81,2.81,0,0,1,1.2.35l-0.67,1.52a1.54,1.54,0,0,0-.93-0.31,2.52,2.52,0,0,0-1.76,1,7.28,7.28,0,0,0-1.42,3.44l-0.81,3.85h-1.56Z"/><path class="cls-2" d="M157.46,103l2.77-13.27h1.51L161.46,91a6.21,6.21,0,0,1,1.5-1.22,3.11,3.11,0,0,1,1.41-.33,3,3,0,0,1,2.28,1,4.14,4.14,0,0,1,.9,2.86,7.32,7.32,0,0,1-.5,2.73,6.21,6.21,0,0,1-1.22,2,5.27,5.27,0,0,1-1.46,1.11,3.56,3.56,0,0,1-1.52.35,2.94,2.94,0,0,1-2.68-1.75L159.09,103h-1.63Zm3.23-7.59a5.14,5.14,0,0,0,.15,1.49,2.05,2.05,0,0,0,.75,1,2,2,0,0,0,1.18.36,2.59,2.59,0,0,0,2.28-1.58,6.67,6.67,0,0,0,.86-3.23,2.8,2.8,0,0,0-.58-1.89,1.86,1.86,0,0,0-1.45-.66,2.15,2.15,0,0,0-1.16.33,3.49,3.49,0,0,0-1,1,5.9,5.9,0,0,0-.76,1.61A5.67,5.67,0,0,0,160.69,95.36Z"/><path class="cls-2" d="M174.6,99.28L177.36,86h5.53a5.5,5.5,0,0,1,2.16.33,2.69,2.69,0,0,1,1.18,1.13,3.51,3.51,0,0,1,.47,1.79,4.46,4.46,0,0,1-.33,1.67,4.52,4.52,0,0,1-.84,1.4,4.07,4.07,0,0,1-1,.83,4.36,4.36,0,0,1-1.12.42,11.3,11.3,0,0,1-2.57.29h-3.32l-1.12,5.38H174.6Zm3.21-6.87h2.92a6.29,6.29,0,0,0,2.5-.37,3,3,0,0,0,1.75-2.7,2,2,0,0,0-.26-1.06,1.51,1.51,0,0,0-.71-0.6,5.31,5.31,0,0,0-1.77-.19h-3.4Z"/><path class="cls-2" d="M187.12,99.28l2-9.59h1.44l-0.41,2A6.89,6.89,0,0,1,191.62,90a2.4,2.4,0,0,1,1.45-.53,2.86,2.86,0,0,1,1.2.35l-0.67,1.52a1.55,1.55,0,0,0-.93-0.31,2.5,2.5,0,0,0-1.76,1,7.26,7.26,0,0,0-1.41,3.44l-0.82,3.85h-1.55Z"/><path class="cls-2" d="M193.58,99.28l2-9.59h1.62l-2,9.59h-1.64ZM196,87.89L196.36,86H198l-0.39,1.85H196Z"/><path class="cls-2" d="M204.75,95.79L206.38,96a5.56,5.56,0,0,1-1.74,2.67,4.14,4.14,0,0,1-2.58.87,3.35,3.35,0,0,1-2.54-1,3.9,3.9,0,0,1-1-2.83,8.16,8.16,0,0,1,.62-3.09A5,5,0,0,1,201,90.26a4.6,4.6,0,0,1,2.65-.79,3.36,3.36,0,0,1,2.44.87,3,3,0,0,1,.9,2.31l-1.6.1a2,2,0,0,0-.53-1.42,1.85,1.85,0,0,0-1.36-.51,2.49,2.49,0,0,0-1.7.62,4.06,4.06,0,0,0-1.14,1.89,7.76,7.76,0,0,0-.41,2.44,2.71,2.71,0,0,0,.55,1.85,1.7,1.7,0,0,0,1.34.61,2.32,2.32,0,0,0,1.51-.6A3.92,3.92,0,0,0,204.75,95.79Z"/><path class="cls-2" d="M214.79,96l1.59,0.16a4.87,4.87,0,0,1-1.58,2.25,4.34,4.34,0,0,1-2.94,1.07,4,4,0,0,1-2-.49,3.21,3.21,0,0,1-1.35-1.43,4.69,4.69,0,0,1-.47-2.14,6.86,6.86,0,0,1,.73-3,5.21,5.21,0,0,1,1.88-2.19,4.64,4.64,0,0,1,2.5-.72,3.61,3.61,0,0,1,2.74,1.06,4,4,0,0,1,1,2.91,9.15,9.15,0,0,1-.13,1.45h-7.06a3.4,3.4,0,0,0,0,.5,3,3,0,0,0,.62,2.06,1.93,1.93,0,0,0,1.51.71,2.93,2.93,0,0,0,1.66-.55A3.64,3.64,0,0,0,214.79,96ZM210,93.65h5.39c0-.17,0-0.29,0-0.36a2.65,2.65,0,0,0-.61-1.89,2.07,2.07,0,0,0-1.58-.65,2.92,2.92,0,0,0-1.91.72A4.35,4.35,0,0,0,210,93.65Z"/><path class="cls-2" d="M218.55,96l1.63-.09a3,3,0,0,0,.22,1.2,1.75,1.75,0,0,0,.8.82,2.88,2.88,0,0,0,1.36.31,2.6,2.6,0,0,0,1.63-.43,1.22,1.22,0,0,0,.22-1.83,5.42,5.42,0,0,0-1.63-.93,16.11,16.11,0,0,1-1.66-.78,2.69,2.69,0,0,1-.91-0.87,2.17,2.17,0,0,1-.3-1.15,2.53,2.53,0,0,1,.9-2,3.68,3.68,0,0,1,2.54-.81,4,4,0,0,1,2.74.83,2.88,2.88,0,0,1,1,2.2l-1.6.11a1.81,1.81,0,0,0-.61-1.37,2.41,2.41,0,0,0-1.64-.51,2,2,0,0,0-1.32.39,1.08,1.08,0,0,0-.47.84,1,1,0,0,0,.41.79,6.72,6.72,0,0,0,1.4.73,9.41,9.41,0,0,1,2.36,1.28,2.45,2.45,0,0,1,.78,1.83,2.56,2.56,0,0,1-.44,1.4,2.94,2.94,0,0,1-1.33,1.09,5,5,0,0,1-2.12.41,4.75,4.75,0,0,1-2.83-.82A2.91,2.91,0,0,1,218.55,96Z"/><path class="cls-2" d="M228.46,99.28l0.4-1.85h1.85l-0.41,1.85h-1.84Z"/><path class="cls-2" d="M239.71,95l1.74-.16,0,0.46a2.9,2.9,0,0,0,.35,1.41,2.31,2.31,0,0,0,1.17,1,4.87,4.87,0,0,0,1.94.35,3.68,3.68,0,0,0,2.42-.7,2,2,0,0,0,.84-1.59,1.7,1.7,0,0,0-.44-1.13,8.33,8.33,0,0,0-2.46-1.38,16.5,16.5,0,0,1-2.13-1,4.28,4.28,0,0,1-1.33-1.28,3,3,0,0,1-.42-1.58,3.22,3.22,0,0,1,.56-1.83,3.51,3.51,0,0,1,1.64-1.26,6.56,6.56,0,0,1,2.44-.44,6.15,6.15,0,0,1,2.72.55,3.62,3.62,0,0,1,2.11,3.17c0,0.05,0,.14,0,0.27l-1.71.13a2.88,2.88,0,0,0-.1-0.87,2.3,2.3,0,0,0-.56-0.94,2.74,2.74,0,0,0-1-.6,4.56,4.56,0,0,0-1.49-.24,3.5,3.5,0,0,0-2.25.65,1.61,1.61,0,0,0-.61,1.32,1.55,1.55,0,0,0,.25.87,2.56,2.56,0,0,0,.91.76c0.31,0.18,1.06.52,2.23,1a14,14,0,0,1,2,1,3.37,3.37,0,0,1,1.11,1.16,3,3,0,0,1,.39,1.55,3.38,3.38,0,0,1-.65,2,4.19,4.19,0,0,1-1.81,1.4,6.55,6.55,0,0,1-2.65.5,6.34,6.34,0,0,1-3.67-1A4,4,0,0,1,239.71,95Z"/><path class="cls-2" d="M251.72,99.28l2-9.59h1.64L255,91.27a6.79,6.79,0,0,1,1.63-1.41,3.3,3.3,0,0,1,1.56-.38,2.31,2.31,0,0,1,1.5.47,2.26,2.26,0,0,1,.79,1.32A5.33,5.33,0,0,1,262,89.92a3.46,3.46,0,0,1,1.7-.45,2.53,2.53,0,0,1,1.8.56,2.09,2.09,0,0,1,.6,1.6,8.54,8.54,0,0,1-.2,1.46l-1.3,6.18H263l1.32-6.34a5.93,5.93,0,0,0,.17-1.11,1,1,0,0,0-.3-0.74,1.22,1.22,0,0,0-.84-0.27,2.91,2.91,0,0,0-1.49.44,3.09,3.09,0,0,0-1.18,1.16,7.57,7.57,0,0,0-.74,2.21l-1,4.65h-1.64l1.36-6.48a5.43,5.43,0,0,0,.14-0.94,1,1,0,0,0-.29-0.76,1,1,0,0,0-.76-0.29,2.85,2.85,0,0,0-1.46.44,3.47,3.47,0,0,0-1.24,1.23,7.14,7.14,0,0,0-.79,2.26l-0.95,4.53h-1.64Z"/><path class="cls-2" d="M274,98.09a6.77,6.77,0,0,1-1.63,1.07,4.17,4.17,0,0,1-1.69.34,2.94,2.94,0,0,1-2.13-.78,2.64,2.64,0,0,1-.81-2,2.75,2.75,0,0,1,.36-1.42,2.86,2.86,0,0,1,1-1,4.22,4.22,0,0,1,1.48-.54,17.06,17.06,0,0,1,2.09-.17,7.32,7.32,0,0,0,2.21-.32,4.1,4.1,0,0,0,.19-1.11,1.09,1.09,0,0,0-.41-0.89,2.63,2.63,0,0,0-1.66-.45,2.86,2.86,0,0,0-1.69.46,2.54,2.54,0,0,0-1,1.3l-1.65-.15a4.26,4.26,0,0,1,1.6-2.18,4.74,4.74,0,0,1,2.76-.76,4.32,4.32,0,0,1,2.82.85,2,2,0,0,1,.79,1.64,8.32,8.32,0,0,1-.22,1.78l-0.53,2.38a8.71,8.71,0,0,0-.25,1.85,6.22,6.22,0,0,0,.2,1.3h-1.65A5.56,5.56,0,0,1,274,98.09Zm0.6-3.67a3.91,3.91,0,0,1-.74.2c-0.26,0-.7.1-1.3,0.15a10.07,10.07,0,0,0-2,.32,1.75,1.75,0,0,0-.88.62,1.57,1.57,0,0,0-.3.94,1.47,1.47,0,0,0,.48,1.13,1.9,1.9,0,0,0,1.35.44,3.1,3.1,0,0,0,1.56-.43,3.06,3.06,0,0,0,1.18-1.2A6.86,6.86,0,0,0,274.57,94.43Z"/><path class="cls-2" d="M278.17,99.28l2-9.59h1.44l-0.41,2A6.93,6.93,0,0,1,282.65,90a2.42,2.42,0,0,1,1.45-.53,2.86,2.86,0,0,1,1.2.35l-0.67,1.52a1.54,1.54,0,0,0-.93-0.31,2.54,2.54,0,0,0-1.77,1,7.31,7.31,0,0,0-1.41,3.44l-0.82,3.85h-1.55Z"/><path class="cls-2" d="M288.51,98l-0.27,1.34a4.65,4.65,0,0,1-1.15.15,2.35,2.35,0,0,1-1.55-.48,1.2,1.2,0,0,1-.43-1,10,10,0,0,1,.23-1.45L286.51,91h-1.29l0.26-1.27h1.29l0.49-2.35,1.87-1.13-0.73,3.48H290L289.75,91h-1.6L287,96.25a9.13,9.13,0,0,0-.2,1.21,0.59,0.59,0,0,0,.16.45,0.8,0.8,0,0,0,.55.15A3.88,3.88,0,0,0,288.51,98Z"/><path class="cls-2" d="M299.29,99.28l2.45-11.73H297.4L297.71,86h10.42l-0.32,1.51h-4.31l-2.44,11.73h-1.78Z"/><path class="cls-2" d="M306,99.28l2-9.59h1.44l-0.4,2A6.93,6.93,0,0,1,310.49,90a2.41,2.41,0,0,1,1.45-.53,2.82,2.82,0,0,1,1.2.35l-0.67,1.52a1.57,1.57,0,0,0-.94-0.31,2.5,2.5,0,0,0-1.75,1,7.26,7.26,0,0,0-1.42,3.44l-0.82,3.85H306Z"/><path class="cls-2" d="M319,98.09a6.63,6.63,0,0,1-1.63,1.07,4.17,4.17,0,0,1-1.68.34,2.93,2.93,0,0,1-2.14-.78,2.63,2.63,0,0,1-.82-2,2.75,2.75,0,0,1,.36-1.42,2.88,2.88,0,0,1,1-1,4.27,4.27,0,0,1,1.49-.54,17.16,17.16,0,0,1,2.09-.17,7.28,7.28,0,0,0,2.21-.32,4.09,4.09,0,0,0,.19-1.11,1.07,1.07,0,0,0-.42-0.89,2.62,2.62,0,0,0-1.66-.45,2.87,2.87,0,0,0-1.69.46,2.59,2.59,0,0,0-1,1.3l-1.66-.15a4.31,4.31,0,0,1,1.6-2.18,4.76,4.76,0,0,1,2.77-.76,4.33,4.33,0,0,1,2.81.85,2,2,0,0,1,.79,1.64,8.16,8.16,0,0,1-.22,1.78l-0.54,2.38a9.51,9.51,0,0,0-.25,1.85,6.39,6.39,0,0,0,.2,1.3h-1.64A6.39,6.39,0,0,1,319,98.09Zm0.61-3.67a3.94,3.94,0,0,1-.73.2q-0.39.07-1.31,0.15a9.85,9.85,0,0,0-2,.32,1.75,1.75,0,0,0-.89.62,1.62,1.62,0,0,0-.29.94,1.49,1.49,0,0,0,.47,1.13,1.91,1.91,0,0,0,1.35.44,3.09,3.09,0,0,0,1.56-.43,3.14,3.14,0,0,0,1.19-1.2A7.4,7.4,0,0,0,319.59,94.43Z"/><path class="cls-2" d="M329.65,97.89a4,4,0,0,1-2.93,1.6,2.91,2.91,0,0,1-2.27-1,4.19,4.19,0,0,1-.91-2.92,7.13,7.13,0,0,1,.71-3.2,5.48,5.48,0,0,1,1.81-2.17,3.79,3.79,0,0,1,2.15-.72,2.9,2.9,0,0,1,2.7,1.72L332,86h1.63l-2.77,13.24h-1.51Zm-4.48-2.63a4.89,4.89,0,0,0,.2,1.58,2.1,2.1,0,0,0,.67,1,1.78,1.78,0,0,0,1.15.38,2.55,2.55,0,0,0,2-1.15,6,6,0,0,0,1.21-3.79,2.47,2.47,0,0,0-.6-1.77,2,2,0,0,0-1.5-.64,2.25,2.25,0,0,0-1.07.26,3.13,3.13,0,0,0-1,.89A6.31,6.31,0,0,0,325.17,95.26Z"/><path class="cls-2" d="M333.77,99.28l2-9.59h1.63l-2,9.59h-1.64Zm2.39-11.39L336.54,86h1.63l-0.38,1.85h-1.63Z"/><path class="cls-2" d="M338.31,99.28l2-9.59h1.48l-0.35,1.68a7.88,7.88,0,0,1,1.81-1.44,3.56,3.56,0,0,1,1.72-.45,2.56,2.56,0,0,1,1.83.63,2.21,2.21,0,0,1,.66,1.69,9.61,9.61,0,0,1-.23,1.68L346,99.28h-1.63l1.27-6.08a7.07,7.07,0,0,0,.19-1.31,1,1,0,0,0-.34-0.77,1.33,1.33,0,0,0-.95-0.3,3.21,3.21,0,0,0-2.24.9,5.77,5.77,0,0,0-1.44,3.1l-0.93,4.46h-1.63Z"/><path class="cls-2" d="M348.88,100.14l1.66,0.16a1.61,1.61,0,0,0,.13.84,1,1,0,0,0,.48.43,2.77,2.77,0,0,0,1.15.2,2.66,2.66,0,0,0,2.14-.76,6,6,0,0,0,.78-2.24l0.16-.77a3.78,3.78,0,0,1-2.71,1.29,3.17,3.17,0,0,1-2.43-1.07,4.3,4.3,0,0,1-1-3,5.88,5.88,0,0,1,.77-3,5.76,5.76,0,0,1,1.83-2,4,4,0,0,1,2.19-.69A3.19,3.19,0,0,1,357,91.26l0.32-1.58h1.5l-1.93,9.26a7.61,7.61,0,0,1-.83,2.38,3.44,3.44,0,0,1-1.43,1.32,4.6,4.6,0,0,1-2.12.47,5.87,5.87,0,0,1-2-.3,2.48,2.48,0,0,1-1.24-.87,2.21,2.21,0,0,1-.41-1.31A4,4,0,0,1,348.88,100.14Zm2-5.11a4.16,4.16,0,0,0,.19,1.48,2.25,2.25,0,0,0,.77,1.06,1.83,1.83,0,0,0,1.12.37,2.77,2.77,0,0,0,1.6-.56,3.94,3.94,0,0,0,1.29-1.75,6,6,0,0,0,.49-2.26,2.61,2.61,0,0,0-.66-1.88,2.1,2.1,0,0,0-1.61-.7,2.31,2.31,0,0,0-1.16.32,3.56,3.56,0,0,0-1,1,4.74,4.74,0,0,0-.73,1.56A5.71,5.71,0,0,0,350.92,95Z"/><path class="cls-2" d="M360.07,99.28l0.39-1.85h1.85l-0.39,1.85h-1.84Z"/><path class="cls-2" d="M96.53,41.68a38.35,38.35,0,1,0,0,54.24A38.38,38.38,0,0,0,96.53,41.68Z"/><path class="cls-4" d="M58.73,78.86a7,7,0,0,0,3.21,4.81L61.2,82.3S62.61,78.59,58.73,78.86Z"/><path class="cls-4" d="M94.6,43.62A35.61,35.61,0,1,0,94.6,94,35.63,35.63,0,0,0,94.6,43.62ZM90.92,90.3c-0.39.38-.77,0.75-1.16,1.11-8.55,7-15.14,3.5-15.22,3.5C70.07,94,67.85,94,66.6,93.16A3.29,3.29,0,0,0,65,92.54a2.85,2.85,0,0,1-3.46-.21c-0.12-.09-0.22-0.2-0.32-0.29a2.45,2.45,0,0,1-.47-3.39c0.33-.33-0.25-1.27-0.25-1.27s-1.68-2.49-2.82-4-1.43-4.91-1.45-5l0,0a13.26,13.26,0,0,1-1.85-2.72,7,7,0,0,0-1-1.2,6.3,6.3,0,0,1-.59-0.65,0.27,0.27,0,0,1,0-.21,7.17,7.17,0,0,1,2-2.48c0.4-.26,2.14-1.31,2.14-1.31a3.44,3.44,0,0,1,2.63-1.53,12.6,12.6,0,0,1,5,.76l1.07,0.34c1.8,0.58,3.38,1.26,4.64,1.8a21,21,0,0,0,2.58,1c2.22,0.59,6.15-1.21,7-2,1.36-1.23,1.94-2.06,2-2.74a1.53,1.53,0,0,0-.54-1.12c-0.2-.18-0.46-0.53-0.78-0.86a1.42,1.42,0,0,0-.17-0.16c-3.76-4-3.11-6.51-3.11-6.55,0.16-1.8-.87-3-2-4.15L75,54.43a1.32,1.32,0,0,1-.13-0.15,47.93,47.93,0,0,0,5.83,1.26,11.14,11.14,0,0,0,2.64.14c2-.06,3.51-0.23,3.61-0.68a27,27,0,0,1-5.21-1.54c-1.92-.74-2.23-0.85-3.45-1.25C76.69,51.68,75,50.95,75,50.95c6.78,1.78,9,2.48,12.1,2.52a9.74,9.74,0,0,0,2.33-.21c0.44-.08,1.81-0.39,2-0.86a11.08,11.08,0,0,1-3.83-.61c-7.92-2.62-8.59-3.92-13-5.63A39.53,39.53,0,0,0,67.93,44a12.85,12.85,0,0,0-5.76,0c-6-1.41-7.36-1.26-9.13-.88a30.43,30.43,0,0,1,37.87,4.1,31,31,0,0,1,3.71,4.49L94.77,52A30.4,30.4,0,0,1,90.92,90.3ZM71,56a7,7,0,0,1,3.94,4.23c-3.79.86-3-3-3-3Z"/></svg>