<svg id="Layer_1" data-name="Layer 1" xmlns="http://www.w3.org/2000/svg" viewBox="0 0 60 60"><defs><style>.cls-1{fill:#dedede;}</style></defs><title>email_grey</title><polygon class="cls-1" points="44.655 38.757 44.655 21.415 36.115 30.012 44.655 38.757"/><path class="cls-1" d="M32.813,33.334a4.008,4.008,0,0,1-5.534-.009L25.625,31.65l-8.631,8.822H43.009L34.439,31.7Z"/><path class="cls-1" d="M30.052,32.062a1.51,1.51,0,0,0,1.074-.4L43.181,19.527H17L28.967,31.653A1.527,1.527,0,0,0,30.052,32.062Z"/><path class="cls-1" d="M30,0A30,30,0,1,0,60,30,30,30,0,0,0,30,0ZM47.032,42.849H12.968v-25.7H47.032Z"/><polygon class="cls-1" points="15.345 21.233 15.345 38.76 23.955 29.958 15.345 21.233"/></svg>