<svg id="Layer_1" data-name="Layer 1" xmlns="http://www.w3.org/2000/svg" viewBox="0 0 50 50"><defs><style>.cls-1{fill:#dedede;}</style></defs><title>email_grey</title><polygon class="cls-1" points="32.816 29.67 32.816 20.421 28.261 25.006 32.816 29.67"/><path class="cls-1" d="M26.5,26.778a2.137,2.137,0,0,1-2.952,0l-.882-.894-4.6,4.7H31.938l-4.57-4.68Z"/><path class="cls-1" d="M25.028,26.1a.805.805,0,0,0,.573-.214l6.429-6.471H18.067l6.382,6.467A.814.814,0,0,0,25.028,26.1Z"/><path class="cls-1" d="M25,9A16,16,0,1,0,41,25,16,16,0,0,0,25,9Zm9.083,22.853H15.917V18.147H34.083Z"/><polygon class="cls-1" points="17.184 20.324 17.184 29.672 21.776 24.978 17.184 20.324"/></svg>