<svg id="Layer_1" data-name="Layer 1" xmlns="http://www.w3.org/2000/svg" viewBox="0 0 82 82"><defs><style>.cls-1,.cls-2{fill:none;}.cls-1{stroke:#283052;stroke-width:0.85px;}.cls-2{stroke:#293052;stroke-miterlimit:10;stroke-width:1.28px;}</style></defs><title>icon</title><g id="_Group_" data-name="&lt;Group&gt;"><path id="_Compound_Path_" data-name="&lt;Compound Path&gt;" class="cls-1" d="M37.46,57.66A13.41,13.41,0,1,1,24.05,44.4,13.34,13.34,0,0,1,37.46,57.66ZM24.05,51.23a6.43,6.43,0,1,0,6.5,6.43A6.47,6.47,0,0,0,24.05,51.23Zm23.05,8.3V55.78H42.71a18.25,18.25,0,0,0-.6-3.14L46.2,51l-1.39-3.49-4.09,1.59a18.53,18.53,0,0,0-2.13-3.22l3.11-3.08L39,40.21l-3.11,3.08a18.82,18.82,0,0,0-2.67-1.8l1.75-4L31.51,36l-1.75,4A18.84,18.84,0,0,0,26,39.2V34.85H22.16V39.2a18.86,18.86,0,0,0-3.18.6l-1.61-4-3.53,1.37,1.61,4a18.77,18.77,0,0,0-3.25,2.11L9.09,40.21,6.41,42.86l3.11,3.08A18.68,18.68,0,0,0,7.7,48.58l-4-1.73L2.16,50.28l4,1.73a18.24,18.24,0,0,0-.79,3.77H1v3.75H5.39A18.24,18.24,0,0,0,6,62.67L1.91,64.27,3.3,67.76l4.09-1.59a18.57,18.57,0,0,0,2.13,3.22L6.41,72.46l2.68,2.65L12.2,72a18.81,18.81,0,0,0,2.67,1.8l-1.75,4,3.48,1.5,1.75-4a18.81,18.81,0,0,0,3.81.78v4.35H26V76.11a18.83,18.83,0,0,0,3.18-.6l1.61,4,3.53-1.37-1.61-4A18.79,18.79,0,0,0,35.91,72L39,75.11l2.68-2.65-3.11-3.08a18.59,18.59,0,0,0,1.82-2.64l4,1.73L46,65l-4-1.73a18.25,18.25,0,0,0,.79-3.77h4.39ZM61.4,20.84A11.27,11.27,0,1,0,72.8,32.11,11.34,11.34,0,0,0,61.4,20.84Zm0,5.81a5.47,5.47,0,1,0,5.53,5.47A5.5,5.5,0,0,0,61.4,26.64ZM81,33.71V30.52H77.26a15.64,15.64,0,0,0-.51-2.67l3.48-1.36-1.18-3-3.48,1.35a15.76,15.76,0,0,0-1.81-2.74l2.64-2.62-2.28-2.25-2.64,2.61a16.06,16.06,0,0,0-2.27-1.53L70.69,15l-3-1.27-1.49,3.39A16.06,16.06,0,0,0,63,16.42v-3.7H59.79v3.7a16.12,16.12,0,0,0-2.7.51l-1.37-3.44-3,1.17,1.37,3.44a16,16,0,0,0-2.77,1.79l-2.64-2.61L46.4,19.53,49,22.14a15.84,15.84,0,0,0-1.55,2.25l-3.43-1.47-1.29,2.92,3.43,1.47a15.58,15.58,0,0,0-.67,3.2H41.8v3.19h3.74A15.63,15.63,0,0,0,46,36.38l-3.48,1.35,1.18,3,3.48-1.35A15.79,15.79,0,0,0,49,42.08L46.4,44.69l2.28,2.26,2.64-2.61a16,16,0,0,0,2.27,1.53L52.1,49.25l3,1.27,1.49-3.39a16,16,0,0,0,3.24.67v3.7H63V47.8a16.12,16.12,0,0,0,2.7-.51l1.37,3.44,3-1.17-1.37-3.44a15.94,15.94,0,0,0,2.77-1.79l2.64,2.61,2.28-2.26-2.64-2.61a15.9,15.9,0,0,0,1.55-2.25l3.43,1.47L80,38.38l-3.43-1.47a15.51,15.51,0,0,0,.67-3.2H81ZM25.28,8.1a9.11,9.11,0,1,0,9.21,9.11A9.16,9.16,0,0,0,25.28,8.1Zm0,4.69a4.42,4.42,0,1,0,4.47,4.42A4.45,4.45,0,0,0,25.28,12.79ZM41.12,18.5V15.92h-3a12.68,12.68,0,0,0-.42-2.16l2.81-1.1-1-2.4-2.81,1.1a12.61,12.61,0,0,0-1.46-2.21L37.4,7,35.56,5.22,33.42,7.33a12.87,12.87,0,0,0-1.84-1.24l1.21-2.74-2.39-1L29.2,5.06a13,13,0,0,0-2.62-.54v-3H24v3a13.16,13.16,0,0,0-2.18.41L20.68,2.16l-2.42.94,1.11,2.78a12.86,12.86,0,0,0-2.24,1.45L15,5.22,13.15,7l2.14,2.11A12.79,12.79,0,0,0,14,11L11.27,9.78l-1,2.36L13,13.33a12.65,12.65,0,0,0-.54,2.59h-3V18.5h3a12.6,12.6,0,0,0,.42,2.16l-2.81,1.09,1,2.4,2.81-1.09a12.69,12.69,0,0,0,1.46,2.21l-2.14,2.11L15,29.2l2.14-2.11A12.92,12.92,0,0,0,19,28.33l-1.21,2.74,2.39,1,1.2-2.74a13,13,0,0,0,2.62.54v3h2.61v-3a13.07,13.07,0,0,0,2.18-.41l1.11,2.78,2.42-.94-1.11-2.78a12.83,12.83,0,0,0,2.24-1.45l2.14,2.11,1.84-1.82-2.14-2.11a12.8,12.8,0,0,0,1.25-1.82l2.77,1.19,1-2.36-2.77-1.19a12.59,12.59,0,0,0,.54-2.59h3Z"/><path id="_Compound_Path_2" data-name="&lt;Compound Path&gt;" class="cls-2" d="M37.46,57.66A13.41,13.41,0,1,1,24.05,44.4,13.34,13.34,0,0,1,37.46,57.66ZM24.05,51.23a6.43,6.43,0,1,0,6.5,6.43A6.47,6.47,0,0,0,24.05,51.23Zm23.05,8.3V55.78H42.71a18.25,18.25,0,0,0-.6-3.14L46.2,51l-1.39-3.49-4.09,1.59a18.53,18.53,0,0,0-2.13-3.22l3.11-3.08L39,40.21l-3.11,3.08a18.82,18.82,0,0,0-2.67-1.8l1.75-4L31.51,36l-1.75,4A18.84,18.84,0,0,0,26,39.2V34.85H22.16V39.2a18.86,18.86,0,0,0-3.18.6l-1.61-4-3.53,1.37,1.61,4a18.77,18.77,0,0,0-3.25,2.11L9.09,40.21,6.41,42.86l3.11,3.08A18.68,18.68,0,0,0,7.7,48.58l-4-1.73L2.16,50.28l4,1.73a18.24,18.24,0,0,0-.79,3.77H1v3.75H5.39A18.24,18.24,0,0,0,6,62.67L1.91,64.27,3.3,67.76l4.09-1.59a18.57,18.57,0,0,0,2.13,3.22L6.41,72.46l2.68,2.65L12.2,72a18.81,18.81,0,0,0,2.67,1.8l-1.75,4,3.48,1.5,1.75-4a18.81,18.81,0,0,0,3.81.78v4.35H26V76.11a18.83,18.83,0,0,0,3.18-.6l1.61,4,3.53-1.37-1.61-4A18.79,18.79,0,0,0,35.91,72L39,75.11l2.68-2.65-3.11-3.08a18.59,18.59,0,0,0,1.82-2.64l4,1.73L46,65l-4-1.73a18.25,18.25,0,0,0,.79-3.77h4.39ZM61.4,20.84A11.27,11.27,0,1,0,72.8,32.11,11.34,11.34,0,0,0,61.4,20.84Zm0,5.81a5.47,5.47,0,1,0,5.53,5.47A5.5,5.5,0,0,0,61.4,26.64ZM81,33.71V30.52H77.26a15.64,15.64,0,0,0-.51-2.67l3.48-1.36-1.18-3-3.48,1.35a15.76,15.76,0,0,0-1.81-2.74l2.64-2.62-2.28-2.25-2.64,2.61a16.06,16.06,0,0,0-2.27-1.53L70.69,15l-3-1.27-1.49,3.39A16.06,16.06,0,0,0,63,16.42v-3.7H59.79v3.7a16.12,16.12,0,0,0-2.7.51l-1.37-3.44-3,1.17,1.37,3.44a16,16,0,0,0-2.77,1.79l-2.64-2.61L46.4,19.53,49,22.14a15.84,15.84,0,0,0-1.55,2.25l-3.43-1.47-1.29,2.92,3.43,1.47a15.58,15.58,0,0,0-.67,3.2H41.8v3.19h3.74A15.63,15.63,0,0,0,46,36.38l-3.48,1.35,1.18,3,3.48-1.35A15.79,15.79,0,0,0,49,42.08L46.4,44.69l2.28,2.26,2.64-2.61a16,16,0,0,0,2.27,1.53L52.1,49.25l3,1.27,1.49-3.39a16,16,0,0,0,3.24.67v3.7H63V47.8a16.12,16.12,0,0,0,2.7-.51l1.37,3.44,3-1.17-1.37-3.44a15.94,15.94,0,0,0,2.77-1.79l2.64,2.61,2.28-2.26-2.64-2.61a15.9,15.9,0,0,0,1.55-2.25l3.43,1.47L80,38.38l-3.43-1.47a15.51,15.51,0,0,0,.67-3.2H81ZM25.28,8.1a9.11,9.11,0,1,0,9.21,9.11A9.16,9.16,0,0,0,25.28,8.1Zm0,4.69a4.42,4.42,0,1,0,4.47,4.42A4.45,4.45,0,0,0,25.28,12.79ZM41.12,18.5V15.92h-3a12.68,12.68,0,0,0-.42-2.16l2.81-1.1-1-2.4-2.81,1.1a12.61,12.61,0,0,0-1.46-2.21L37.4,7,35.56,5.22,33.42,7.33a12.87,12.87,0,0,0-1.84-1.24l1.21-2.74-2.39-1L29.2,5.06a13,13,0,0,0-2.62-.54v-3H24v3a13.16,13.16,0,0,0-2.18.41L20.68,2.16l-2.42.94,1.11,2.78a12.86,12.86,0,0,0-2.24,1.45L15,5.22,13.15,7l2.14,2.11A12.79,12.79,0,0,0,14,11L11.27,9.78l-1,2.36L13,13.33a12.65,12.65,0,0,0-.54,2.59h-3V18.5h3a12.6,12.6,0,0,0,.42,2.16l-2.81,1.09,1,2.4,2.81-1.09a12.69,12.69,0,0,0,1.46,2.21l-2.14,2.11L15,29.2l2.14-2.11A12.92,12.92,0,0,0,19,28.33l-1.21,2.74,2.39,1,1.2-2.74a13,13,0,0,0,2.62.54v3h2.61v-3a13.07,13.07,0,0,0,2.18-.41l1.11,2.78,2.42-.94-1.11-2.78a12.83,12.83,0,0,0,2.24-1.45l2.14,2.11,1.84-1.82-2.14-2.11a12.8,12.8,0,0,0,1.25-1.82l2.77,1.19,1-2.36-2.77-1.19a12.59,12.59,0,0,0,.54-2.59h3Z"/></g></svg>