<svg id="Layer_1" data-name="Layer 1" xmlns="http://www.w3.org/2000/svg" viewBox="0 0 82 82"><defs><style>.cls-1,.cls-2{fill:none;stroke:#293052;stroke-miterlimit:10;}.cls-1{stroke-width:1.3px;}.cls-2{stroke-width:1.48px;}</style></defs><title>icon</title><g id="_Group_" data-name="&lt;Group&gt;"><path id="_Path_" data-name="&lt;Path&gt;" class="cls-1" d="M8.64,31.47a3.31,3.31,0,0,0,3.13-2.25h0A6.45,6.45,0,0,1,18,24.84H33.24a1.73,1.73,0,1,1,0,3.46h-4.8a0.61,0.61,0,1,0,0,1.22H48.62a1.73,1.73,0,1,1,0,3.46H37.5a1.73,1.73,0,1,0,0,3.46H48.62a1.73,1.73,0,1,1,0,3.46H37.5a1.73,1.73,0,1,0,0,3.46H48.62a1.73,1.73,0,1,1,0,3.46H37.5a1.73,1.73,0,1,0,0,3.46H48.62a1.73,1.73,0,1,1,0,3.46H17.45a6.83,6.83,0,0,1-5.19-3.09h0A3.31,3.31,0,0,0,9.41,49H1V31.47H8.64Z"/><path id="_Compound_Path_" data-name="&lt;Compound Path&gt;" class="cls-1" d="M81,34.9V52.46H76.71a3.31,3.31,0,0,0-2.84,1.61h0a6.83,6.83,0,0,1-5.19,3.09H37.5a1.73,1.73,0,1,1,0-3.46H48.62a1.73,1.73,0,1,0,0-3.46H37.5a1.73,1.73,0,1,1,0-3.46H48.62a1.73,1.73,0,1,0,0-3.46H37.5a1.73,1.73,0,1,1,0-3.46H48.62a1.73,1.73,0,1,0,0-3.46H37.5a1.73,1.73,0,1,1,0-3.46H57.69a0.61,0.61,0,1,0,0-1.22h-4.8a1.73,1.73,0,1,1,0-3.46H68.17a6.45,6.45,0,0,1,6.16,4.37h0a3.31,3.31,0,0,0,3.13,2.25H81Z"/><path id="_Path_2" data-name="&lt;Path&gt;" class="cls-2" d="M8.64,31.47a3.31,3.31,0,0,0,3.13-2.25h0A6.45,6.45,0,0,1,18,24.84H33.24a1.73,1.73,0,1,1,0,3.46h-4.8a0.61,0.61,0,1,0,0,1.22H48.62a1.73,1.73,0,1,1,0,3.46H37.5a1.73,1.73,0,1,0,0,3.46H48.62a1.73,1.73,0,1,1,0,3.46H37.5a1.73,1.73,0,1,0,0,3.46H48.62a1.73,1.73,0,1,1,0,3.46H37.5a1.73,1.73,0,1,0,0,3.46H48.62a1.73,1.73,0,1,1,0,3.46H17.45a6.83,6.83,0,0,1-5.19-3.09h0A3.31,3.31,0,0,0,9.41,49H1V31.47H8.64Z"/><path id="_Compound_Path_2" data-name="&lt;Compound Path&gt;" class="cls-2" d="M81,34.9V52.46H76.71a3.31,3.31,0,0,0-2.84,1.61h0a6.83,6.83,0,0,1-5.19,3.09H37.5a1.73,1.73,0,1,1,0-3.46H48.62a1.73,1.73,0,1,0,0-3.46H37.5a1.73,1.73,0,1,1,0-3.46H48.62a1.73,1.73,0,1,0,0-3.46H37.5a1.73,1.73,0,1,1,0-3.46H48.62a1.73,1.73,0,1,0,0-3.46H37.5a1.73,1.73,0,1,1,0-3.46H57.69a0.61,0.61,0,1,0,0-1.22h-4.8a1.73,1.73,0,1,1,0-3.46H68.17a6.45,6.45,0,0,1,6.16,4.37h0a3.31,3.31,0,0,0,3.13,2.25H81Z"/></g></svg>