<?xml version="1.0" encoding="utf-8"?>
<!-- Generator: Adobe Illustrator 19.2.1, SVG Export Plug-In . SVG Version: 6.00 Build 0)  -->
<svg version="1.1" id="Layer_1" xmlns="http://www.w3.org/2000/svg" xmlns:xlink="http://www.w3.org/1999/xlink" x="0px" y="0px"
	 viewBox="0 0 80 80" style="enable-background:new 0 0 80 80;" xml:space="preserve">
<style type="text/css">
	.st0{fill:none;stroke:#E88025;stroke-width:1.3028;stroke-miterlimit:10;}
	.st1{clip-path:url(#SVGID_2_);fill:#293052;}
	.st2{clip-path:url(#SVGID_4_);fill:#293052;}
	.st3{clip-path:url(#SVGID_6_);fill:#293052;}
	.st4{clip-path:url(#SVGID_8_);fill:#293052;}
	.st5{clip-path:url(#SVGID_10_);fill:#293052;}
	.st6{clip-path:url(#SVGID_12_);fill:#293052;}
	.st7{opacity:0.1;enable-background:new    ;}
	.st8{fill:#293052;}
	.st9{fill:none;}
</style>
<g>
	<line class="st0" x1="39.8" y1="25.5" x2="39.8" y2="19.2"/>
	<line class="st0" x1="64.3" y1="50.1" x2="58.6" y2="47.5"/>
	<line class="st0" x1="64.3" y1="29.7" x2="58.6" y2="32.5"/>
	<line class="st0" x1="15.6" y1="50.1" x2="21.3" y2="47.6"/>
	<line class="st0" x1="15.7" y1="29.7" x2="21.3" y2="32.5"/>
	<line class="st0" x1="39.8" y1="62.7" x2="39.8" y2="56.5"/>
	<g>
		<g>
			<defs>
				<path id="SVGID_1_" d="M70.3,29.1h-6l0.2-0.9c0-0.3,0.2-0.3,0.4-0.3l1-0.4c0,0,0,0,0,0v0l0,0c0.2-0.1,0.4-0.2,0.4-0.3
					c0-0.1,0.1-0.1,0.1-0.1c0,0,0,0,0,0c0-0.1,0.1-0.2,0.1-0.3c0,0,0,0,0,0l0-0.1l0-0.2c0,0,0,0,0,0c-0.1-0.1-0.1-0.3-0.1-0.3
					c0,0-0.1-0.1-0.2-0.3c-0.1-0.2-0.1-0.5-0.1-0.6c0,0,0,0,0,0c0,0,0,0,0-0.1c0-0.1-0.1-0.2-0.1-0.3c0-0.2,0-0.7,0.1-0.9
					c0.1-0.2,0.3-0.3,0.5-0.4c0.2,0,0.8-0.1,1,0c0.1,0,0.1,0.1,0.2,0.1c0.1,0.1,0.3,0.2,0.3,0.3c0.1,0.2,0.1,0.6,0.1,0.8
					c0,0.1,0,0.3-0.1,0.4c0,0,0,0,0.1,0c0.1,0,0,0.3-0.1,0.6c-0.1,0.2-0.1,0.2-0.2,0.3c0,0,0,0.2-0.1,0.3c0,0,0,0,0,0l0,0.2
					c0,0.1,0,0,0,0c0,0,0.1,0.2,0.1,0.2c0,0,0,0,0,0h0h0l0,0l0,0h0c0,0,0.1,0,0.1,0.1l0,0l0,0l0,0c0,0,0,0,0,0l0,0l0,0
					c0.1,0.1,0.2,0.2,0.4,0.3l0,0c0,0,0,0,0.1,0l1,0.4c0.2,0.1,0.4,0.1,0.4,0.3L70.3,29.1z"/>
			</defs>
			<clipPath id="SVGID_2_">
				<use xlink:href="#SVGID_1_"  style="overflow:visible;"/>
			</clipPath>
			<rect x="64.3" y="23.8" class="st1" width="6.2" height="5.5"/>
		</g>
	</g>
	<g>
		<g>
			<defs>
				<path id="SVGID_3_" d="M70.3,52.8h-6l0.2-0.9c0-0.3,0.2-0.3,0.4-0.3l1-0.4c0,0,0,0,0,0l0,0l0,0c0.2-0.1,0.4-0.2,0.4-0.3
					c0-0.1,0.1-0.1,0.1-0.1c0,0,0,0,0,0c0-0.1,0.1-0.2,0.1-0.3c0,0,0,0,0,0l0-0.1l0-0.2c0,0,0,0,0,0c-0.1-0.1-0.1-0.3-0.1-0.3
					c0,0-0.1-0.1-0.2-0.3c-0.1-0.2-0.1-0.5-0.1-0.5c0,0,0,0,0,0c0,0,0,0,0-0.1c0-0.1-0.1-0.2-0.1-0.3c0-0.2,0-0.7,0.1-0.9
					c0.1-0.2,0.3-0.3,0.5-0.4c0.2,0,0.8-0.1,1,0c0.1,0,0.1,0.1,0.2,0.1c0.1,0.1,0.3,0.2,0.3,0.3c0.1,0.2,0.1,0.6,0.1,0.8
					c0,0.1,0,0.3-0.1,0.4c0,0,0,0,0.1,0c0.1,0,0,0.3-0.1,0.5c-0.1,0.2-0.1,0.2-0.2,0.3c0,0,0,0.2-0.1,0.3c0,0,0,0,0,0l0,0.2
					c0,0.1,0,0,0,0c0,0,0.1,0.2,0.1,0.2c0,0,0,0,0,0l0,0l0,0h0h0l0,0c0,0,0,0,0.1,0.1l0,0v0l0,0c0,0,0,0,0,0l0,0l0,0
					c0.1,0.1,0.2,0.2,0.4,0.3l0,0c0,0,0,0,0.1,0l1,0.4c0.2,0.1,0.4,0.1,0.4,0.3L70.3,52.8z"/>
			</defs>
			<clipPath id="SVGID_4_">
				<use xlink:href="#SVGID_3_"  style="overflow:visible;"/>
			</clipPath>
			<rect x="64.3" y="47.4" class="st2" width="6.2" height="5.5"/>
		</g>
	</g>
	<g>
		<g>
			<defs>
				<path id="SVGID_5_" d="M42.8,70.6h-6l0.2-0.9c0-0.3,0.2-0.3,0.4-0.4l1-0.4c0,0,0,0,0,0v0l0,0c0.2-0.1,0.4-0.2,0.4-0.3
					c0-0.1,0.1-0.1,0.1-0.1c0,0,0,0,0,0c0-0.1,0.1-0.2,0.1-0.3c0,0,0,0,0,0l0-0.1l0-0.2c0,0,0,0,0,0c-0.1-0.1-0.1-0.3-0.1-0.3
					c0,0-0.1-0.1-0.2-0.3c-0.1-0.2-0.1-0.5-0.1-0.6c0,0,0,0,0,0c0,0,0,0,0-0.1c0-0.1-0.1-0.2-0.1-0.3c0-0.2,0-0.7,0.1-0.9
					c0.1-0.2,0.3-0.3,0.5-0.4c0.2,0,0.8-0.1,1,0c0.1,0,0.1,0.1,0.2,0.1c0.1,0.1,0.3,0.2,0.3,0.3c0.1,0.2,0.1,0.6,0.1,0.8
					c0,0.1,0,0.3-0.1,0.4c0,0,0,0,0.1,0c0.1,0,0,0.3-0.1,0.6c-0.1,0.2-0.1,0.2-0.2,0.3c0,0,0,0.2-0.1,0.3c0,0,0,0,0,0l0,0.2
					c0,0.1,0,0,0,0c0,0,0.1,0.2,0.1,0.2c0,0,0,0,0,0l0,0l0,0l0,0l0,0h0c0,0,0,0,0.1,0.1l0,0v0l0,0c0,0,0,0,0,0l0,0l0,0
					c0.1,0.1,0.2,0.2,0.4,0.3v0c0,0,0,0,0.1,0l1,0.4c0.2,0.1,0.4,0.1,0.4,0.3L42.8,70.6z"/>
			</defs>
			<clipPath id="SVGID_6_">
				<use xlink:href="#SVGID_5_"  style="overflow:visible;"/>
			</clipPath>
			<rect x="36.8" y="65.3" class="st3" width="6.2" height="5.5"/>
		</g>
	</g>
	<g>
		<g>
			<defs>
				<path id="SVGID_7_" d="M15,29.1h-6l0.2-0.9c0-0.3,0.2-0.3,0.4-0.3l1-0.4c0,0,0,0,0,0v0l0,0c0.2-0.1,0.4-0.2,0.4-0.3
					c0-0.1,0.1-0.1,0.1-0.1c0,0,0,0,0,0c0-0.1,0.1-0.2,0.1-0.3c0,0,0,0,0,0l0-0.1l0-0.2c0,0,0,0,0,0C11,26.5,11,26.3,11,26.3
					c0,0-0.1-0.1-0.2-0.3c-0.1-0.2-0.1-0.5-0.1-0.6c0,0,0,0,0,0c0,0,0,0,0-0.1c0-0.1-0.1-0.2-0.1-0.3c0-0.2,0-0.7,0.1-0.9
					c0.1-0.2,0.3-0.3,0.5-0.4c0.2,0,0.8-0.1,1,0c0.1,0,0.1,0.1,0.2,0.1c0.1,0.1,0.3,0.2,0.3,0.3C13,24.4,13,24.9,13,25
					c0,0.1,0,0.3-0.1,0.4c0,0,0,0,0.1,0c0.1,0,0,0.3-0.1,0.6c-0.1,0.2-0.1,0.2-0.2,0.3c0,0,0,0.2-0.1,0.3c0,0,0,0,0,0l0,0.2
					c0,0.1,0,0,0,0c0,0,0.1,0.2,0.1,0.2c0,0,0,0,0,0h0l0,0l0,0l0,0h0c0,0,0,0,0.1,0.1l0,0l0,0l0,0c0,0,0,0,0,0l0,0l0,0
					c0.1,0.1,0.2,0.2,0.4,0.3l0,0c0,0,0,0,0.1,0l1,0.4c0.2,0.1,0.4,0.1,0.4,0.3L15,29.1z"/>
			</defs>
			<clipPath id="SVGID_8_">
				<use xlink:href="#SVGID_7_"  style="overflow:visible;"/>
			</clipPath>
			<rect x="8.9" y="23.8" class="st4" width="6.2" height="5.5"/>
		</g>
	</g>
	<g>
		<g>
			<defs>
				<path id="SVGID_9_" d="M14.8,52.8h-6L9,51.9c0-0.3,0.2-0.3,0.4-0.3l1-0.4c0,0,0,0,0,0v0l0,0c0.2-0.1,0.4-0.2,0.4-0.3
					c0-0.1,0.1-0.1,0.1-0.1c0,0,0,0,0,0c0-0.1,0.1-0.2,0.1-0.3c0,0,0,0,0,0l0-0.1l0-0.2c0,0,0,0,0,0c-0.1-0.1-0.1-0.3-0.1-0.3
					c0,0-0.1-0.1-0.2-0.3c-0.1-0.2-0.1-0.5-0.1-0.5c0,0,0,0,0,0c0,0,0,0,0-0.1c0-0.1-0.1-0.2-0.1-0.3c0-0.2,0-0.7,0.1-0.9
					c0.1-0.2,0.3-0.3,0.5-0.4c0.2,0,0.8-0.1,1,0c0.1,0,0.1,0.1,0.2,0.1c0.1,0.1,0.3,0.2,0.3,0.3c0.1,0.2,0.1,0.6,0.1,0.8
					c0,0.1,0,0.3-0.1,0.4c0,0,0,0,0.1,0c0.1,0,0,0.3-0.1,0.5c-0.1,0.2-0.1,0.2-0.2,0.3c0,0,0,0.2-0.1,0.3c0,0,0,0,0,0l0,0.2
					c0,0.1,0,0,0,0c0,0,0.1,0.2,0.1,0.2c0,0,0,0,0,0h0l0,0h0l0,0l0,0c0,0,0.1,0,0.1,0.1l0,0v0l0,0c0,0,0,0,0,0v0l0,0
					c0.1,0.1,0.2,0.2,0.4,0.3l0,0c0,0,0,0,0.1,0l1,0.4c0.2,0.1,0.4,0.1,0.4,0.3L14.8,52.8z"/>
			</defs>
			<clipPath id="SVGID_10_">
				<use xlink:href="#SVGID_9_"  style="overflow:visible;"/>
			</clipPath>
			<rect x="8.8" y="47.4" class="st5" width="6.2" height="5.5"/>
		</g>
	</g>
	<g>
		<g>
			<defs>
				<path id="SVGID_11_" d="M42.9,16.6h-6l0.2-0.9c0-0.3,0.2-0.3,0.4-0.3l1-0.4c0,0,0,0,0,0v0l0,0c0.2-0.1,0.4-0.2,0.4-0.3
					c0-0.1,0.1-0.1,0.1-0.1c0,0,0,0,0,0c0-0.1,0.1-0.2,0.1-0.3c0,0,0,0,0,0l0-0.1l0-0.2c0,0,0,0,0,0c-0.1-0.1-0.1-0.3-0.1-0.3
					c0,0-0.1-0.1-0.2-0.3c-0.1-0.2-0.1-0.5-0.1-0.6c0,0,0,0,0,0c0,0,0,0,0-0.1c0-0.1-0.1-0.2-0.1-0.3c0-0.2,0-0.7,0.1-0.9
					c0.1-0.2,0.3-0.3,0.5-0.4c0.2,0,0.8-0.1,1,0c0.1,0,0.1,0.1,0.2,0.1c0.1,0.1,0.3,0.2,0.3,0.3c0.1,0.2,0.1,0.6,0.1,0.8
					c0,0.1,0,0.3-0.1,0.4c0,0,0,0,0.1,0c0.1,0,0,0.3-0.1,0.6c-0.1,0.2-0.1,0.2-0.2,0.3c0,0,0,0.2-0.1,0.3c0,0,0,0,0,0l0,0.2
					c0,0.1,0,0,0,0c0,0,0.1,0.2,0.1,0.2c0,0,0,0,0,0h0h0l0,0l0,0h0c0,0,0.1,0,0.1,0.1l0,0l0,0l0,0c0,0,0,0,0,0v0l0,0
					c0.1,0.1,0.2,0.2,0.4,0.3l0,0c0,0,0,0,0.1,0l1,0.4c0.2,0.1,0.4,0.1,0.4,0.3L42.9,16.6z"/>
			</defs>
			<clipPath id="SVGID_12_">
				<use xlink:href="#SVGID_11_"  style="overflow:visible;"/>
			</clipPath>
			<rect x="36.8" y="11.2" class="st6" width="6.2" height="5.5"/>
		</g>
	</g>
	<rect x="39.8" y="30.3" class="st7" width="13.6" height="17.1"/>
	<path class="st8" d="M54.2,47.4V30.4c0-0.7-0.6-1.3-1.3-1.3H26.8c-0.7,0-1.3,0.6-1.3,1.3v16.9l-3.3,3.9c0,1.1,0.9,2,2,2h31.3
		c1.1,0,2-0.9,2-2L54.2,47.4z M42.4,52.6h-5.2c-0.2,0-0.3-0.2-0.3-0.3c0-0.2,0.2-0.3,0.3-0.3h5.2c0.2,0,0.3,0.1,0.3,0.3
		C42.8,52.4,42.6,52.6,42.4,52.6L42.4,52.6z M34.5,51.3l1-1.2h8.8l1,1.2H34.5z M52.3,45.1c0,0.6-0.5,1.1-1.1,1.1H28.5
		c-0.6,0-1.1-0.5-1.1-1.1V31.4c0-0.6,0.5-1.1,1.1-1.1h22.7c0.6,0,1.1,0.5,1.1,1.1V45.1z"/>
	<path class="st8" d="M43.4,34.6c-1-1-2.3-1.4-3.6-1.4c0,0,0,0,0,0l0,0l0,0c-1.3,0-2.7,0.5-3.7,1.6c-2,2-1.9,5.3,0.1,7.3
		c1,1,2.3,1.4,3.6,1.4l0,0l0,0l0,0c1.3,0,2.7-0.5,3.7-1.6C45.5,39.8,45.5,36.6,43.4,34.6z M40,36.4c0.7,0,1.3,0,1.8-0.1
		c0.1,0.6,0.2,1.2,0.2,1.8h-2L40,36.4L40,36.4z M40,36.1v-2.6c0.2,0,0.4,0.1,0.6,0.3c0.3,0.2,0.5,0.5,0.7,1c0.2,0.4,0.3,0.8,0.5,1.2
		C41.3,36,40.7,36.1,40,36.1z M39.7,33.5v2.6c-0.7,0-1.3,0-1.8-0.1c0.1-0.4,0.2-0.8,0.4-1.1C38.7,34.1,39.2,33.6,39.7,33.5z
		 M39.7,36.4v1.7h-2c0-0.6,0.1-1.2,0.2-1.8C38.4,36.4,39,36.4,39.7,36.4z M37.3,38.1h-2.2c0-0.8,0.2-1.5,0.6-2.2
		c0.3,0.1,0.9,0.2,1.8,0.3C37.4,36.9,37.3,37.5,37.3,38.1z M37.3,38.4c0,0.6,0.1,1.2,0.2,1.8c-0.9,0.1-1.5,0.2-1.8,0.3
		c-0.4-0.7-0.6-1.4-0.6-2.2H37.3z M37.6,38.4h2v1.7c-0.7,0-1.3,0-1.8,0.1C37.7,39.7,37.7,39.1,37.6,38.4z M39.7,40.5V43
		c-0.2,0-0.4-0.1-0.6-0.3c-0.3-0.2-0.5-0.5-0.7-1c-0.2-0.4-0.3-0.8-0.5-1.2C38.4,40.5,39,40.5,39.7,40.5z M40,43v-2.6
		c0.7,0,1.3,0,1.8,0.1c-0.1,0.4-0.2,0.8-0.4,1.1C41,42.5,40.5,43,40,43z M40,40.1v-1.7h2c0,0.6-0.1,1.2-0.2,1.8
		C41.4,40.2,40.7,40.2,40,40.1z M42.4,38.4h2.2c0,0.8-0.2,1.5-0.6,2.2c-0.3-0.1-0.9-0.2-1.8-0.3C42.3,39.7,42.4,39.1,42.4,38.4z
		 M42.4,38.1c0-0.6-0.1-1.2-0.2-1.8c0.9-0.1,1.5-0.2,1.8-0.3c0.4,0.7,0.6,1.4,0.6,2.2L42.4,38.1L42.4,38.1z M43.2,34.8
		c0.3,0.2,0.5,0.5,0.7,0.8c-0.3,0.1-0.9,0.2-1.7,0.3c-0.1-0.5-0.3-0.9-0.5-1.4c-0.2-0.4-0.5-0.7-0.7-1
		C41.8,33.8,42.6,34.2,43.2,34.8z M36.4,34.9c0.5-0.5,1-0.8,1.6-1.1c0.3-0.1,0.5-0.2,0.8-0.2c-0.3,0.3-0.5,0.6-0.8,1.1
		c-0.2,0.4-0.3,0.8-0.4,1.2c-0.9-0.1-1.4-0.2-1.7-0.3C36,35.4,36.2,35.2,36.4,34.9z M36.5,41.7c-0.3-0.2-0.5-0.5-0.7-0.8
		c0.3-0.1,0.9-0.2,1.7-0.3c0.1,0.5,0.3,0.9,0.5,1.4c0.2,0.4,0.5,0.7,0.7,1C37.9,42.8,37.2,42.3,36.5,41.7z M43.3,41.6
		c-0.5,0.5-1,0.8-1.6,1.1c-0.3,0.1-0.5,0.2-0.8,0.2c0.3-0.3,0.5-0.6,0.8-1.1c0.2-0.4,0.3-0.8,0.4-1.2c0.9,0.1,1.4,0.2,1.7,0.3
		C43.7,41.2,43.5,41.4,43.3,41.6z"/>
	<line class="st9" x1="21.3" y1="32.5" x2="25.5" y2="32.5"/>
</g>
</svg>
